<svg id="Layer_1" data-name="Layer 1" xmlns="http://www.w3.org/2000/svg" viewBox="0 0 467.57 162.7"><defs><style>.cls-1{fill:#fff;}.cls-2,.cls-3{fill:none;stroke:#fff;stroke-width:3px;}.cls-2{stroke-miterlimit:10;}.cls-3{stroke-linecap:round;stroke-linejoin:round;}</style></defs><path class="cls-1" d="M21.65,76.47H63V90.68H37.28v27.71H57.46V132.6H37.28V176H21.65Z" transform="translate(-21.65 -14.76)"/><path class="cls-1" d="M70.54,76.47H86.17V176H70.54Z" transform="translate(-21.65 -14.76)"/><path class="cls-1" d="M152.11,76.47h42.64V90.68h-27V117h21.46v14.21H167.75v30.56h27V176H152.11Z" transform="translate(-21.65 -14.76)"/><path class="cls-1" d="M225.3,152.36v-52.3c0-15.92,8-25,23.31-25s23.31,9.1,23.31,25v8.53H257.14V99.07c0-7.11-3.13-9.81-8.1-9.81s-8.1,2.7-8.1,9.81V153.5c0,7.11,3.13,9.66,8.1,9.66s8.1-2.56,8.1-9.66V134h-7.82V119.82h22.6v32.55c0,15.92-8,25-23.31,25S225.3,168.28,225.3,152.36Z" transform="translate(-21.65 -14.76)"/><path class="cls-1" d="M281.44,152.36V76.47h15.63v77c0,7.11,3,9.66,8,9.66s8-2.56,8-9.66v-77h15.06v75.89c0,15.92-8,25-23.31,25S281.44,168.28,281.44,152.36Z" transform="translate(-21.65 -14.76)"/><path class="cls-1" d="M339.14,76.47H362.3c16.2,0,23.17,7.53,23.17,22.88v6.11c0,10.23-3.27,16.77-10.23,19.61v.28c7.82,2.42,10.37,9.81,10.37,21v17.48c0,4.83.14,8.38,1.71,12.08H371.4c-.85-2.56-1.42-4.12-1.42-12.22V145.53c0-9.24-2.7-12.22-9.81-12.22h-5.4V176H339.14V76.47Zm21.32,42.64c5.83,0,9.38-2.56,9.38-10.52v-7.67c0-7.11-2.42-10.23-8-10.23h-7.11v28.43h5.69Z" transform="translate(-21.65 -14.76)"/><path class="cls-1" d="M396.42,76.47h15.63v85.27h25.72V176H396.41V76.47Z" transform="translate(-21.65 -14.76)"/><path class="cls-1" d="M442.61,152.36v-5.69h14.78v6.82c0,7.11,3.13,9.66,8.1,9.66s8.1-2.56,8.1-10c0-8.24-3.12-13.5-13.36-22.46-13.08-11.51-17.34-19.61-17.34-31C442.89,84.13,451,75,466.2,75s22.74,9.1,22.74,25v4.12H474.16V99c0-7.11-2.84-9.81-7.82-9.81s-7.82,2.7-7.82,9.52c0,7.25,3.27,12.51,13.5,21.46,13.08,11.51,17.2,19.47,17.2,31.84,0,16.2-8.24,25.3-23.59,25.3S442.61,168.28,442.61,152.36Z" transform="translate(-21.65 -14.76)"/><path class="cls-2" d="M162.49,28.85S176.14,11.37,197,17.6s33,26.54,33,26.54-28.34,14-42.5,10.56a32.24,32.24,0,0,1-20-14.17s11-5.56,16.16-2.93S174.13,29.39,162.49,28.85Z" transform="translate(-21.65 -14.76)"/><path d="M170.76,33.38a31.11,31.11,0,0,1,3.19.75" transform="translate(-21.65 -14.76)"/><path class="cls-3" d="M132.62,70.92s-.51,2.27-1.22,5.55c-1,4.77-2.47,11.76-3.45,17.53-.09.54-.18,1.07-.26,1.59-.34,2.1-.59,4-.72,5.44h0a4.92,4.92,0,0,1-.09.68L120,153.64h-.28l-6.54-49.31h0c-.2-1.48-.4-2.9-.61-4.26-1.84-11.88-4.18-19.3-5.94-23.6a27.71,27.71,0,0,0-2.45-4.89c-9.3-12.44-23.1-21.49-23.1-21.49,12.63,19.07,16.49,46.5,20.11,64.26S108.77,176,108.77,176h20.75l13.3-87.84c8.36-49.32,20.42-50.6,26.62-54C148.3,30.35,138.25,52.64,132.62,70.92Z" transform="translate(-21.65 -14.76)"/></svg>